<svg enable-background="new 0 0 52 52" height="52" viewBox="0 0 52 52" width="52" xmlns="http://www.w3.org/2000/svg"><path d="m26 2c-13.3 0-24 10.7-24 24s10.7 24 24 24 24-10.7 24-24-10.7-24-24-24zm4.9 24.8 7.8 7.8c.4.4.4 1 0 1.4l-2.8 2.8c-.4.4-1 .4-1.4 0l-7.8-7.8c-.4-.4-1-.4-1.4 0l-7.8 7.8c-.4.4-1 .4-1.4 0l-2.8-2.8c-.4-.4-.4-1 0-1.4l7.8-7.8c.4-.4.4-1 0-1.4l-7.9-7.9c-.4-.4-.4-1 0-1.4l2.8-2.8c.4-.4 1-.4 1.4 0l7.9 7.9c.4.4 1 .4 1.4 0l7.8-7.8c.4-.4 1-.4 1.4 0l2.8 2.8c.4.4.4 1 0 1.4l-7.8 7.8c-.3.4-.3 1 0 1.4z" fill="#fff"/></svg>